<svg width="1000" height="1000" viewBox="0 0 1000 1000" fill="none" xmlns="http://www.w3.org/2000/svg">
<path d="M293.831 20.7099C224.251 33.4999 165.681 63.6799 114.521 113.56C61.3212 165.49 29.6012 224.06 14.7612 298.5C7.8512 332.27 8.6212 394.68 16.0412 429.47C30.6212 498.53 60.2912 553.53 110.941 604.43C161.331 655.08 217.091 685 290.251 700.61C320.181 706.75 387.451 706.75 418.661 700.61C463.421 691.66 510.751 672.22 547.071 648.17L562.161 637.94L577.761 652.26C586.461 660.45 667.541 735.9 757.841 820.32C848.131 904.73 925.641 975.84 930.241 978.4C962.471 996.05 1000.58 962.54 987.281 928.01C983.701 918.55 955.821 891.43 802.861 748.7C643.501 599.83 622.781 579.87 625.591 576.04C659.861 529.74 678.031 492.39 690.821 442C699.521 406.96 701.821 341.22 695.681 304.9C682.891 230.98 651.941 170.61 599.501 117.92C550.391 68.55 493.601 37.35 425.561 22.25C395.631 15.6 325.801 14.8299 293.831 20.7099ZM411.491 63.17C526.091 85.17 619.961 172.65 647.841 284.17C662.421 341.47 661.141 396.46 644.001 450.69C610.241 558.64 517.901 639.99 407.911 659.17C376.191 664.8 325.801 664.03 294.341 657.63C172.071 633.08 77.1712 534.85 55.4312 411.05C49.5512 377.29 51.8512 319.48 60.5512 286.99C83.8312 197.72 143.941 125.33 227.331 85.9399C253.161 73.6599 289.491 63.1699 318.391 59.3399C342.681 56.5199 385.401 58.06 411.491 63.17Z" fill="#991010"/>
<rect x="330.434" y="479.271" width="239.898" height="56.4467" transform="rotate(-89.5848 330.434 479.271)" fill="#991010"/>
<rect x="239.785" y="330.438" width="239.898" height="56.4467" transform="rotate(0.415174 239.785 330.438)" fill="#991010"/>
</svg>
